<?xml version="1.0" encoding="UTF-8" standalone="no"?>
<!-- Created with Inkscape (http://www.inkscape.org/) -->

<svg
   xmlns:dc="http://purl.org/dc/elements/1.1/"
   xmlns:cc="http://creativecommons.org/ns#"
   xmlns:rdf="http://www.w3.org/1999/02/22-rdf-syntax-ns#"
   xmlns:svg="http://www.w3.org/2000/svg"
   xmlns="http://www.w3.org/2000/svg"
   xmlns:sodipodi="http://sodipodi.sourceforge.net/DTD/sodipodi-0.dtd"
   xmlns:inkscape="http://www.inkscape.org/namespaces/inkscape"
   width="88"
   height="88"
   viewBox="0 0 23.283333 23.283334"
   version="1.1"
   id="svg8"
   inkscape:version="0.92.2 5c3e80d, 2017-08-06"
   sodipodi:docname="main.svg"
   inkscape:export-filename="/Users/kivutar/ludo/assets/main.png"
   inkscape:export-xdpi="279.27274"
   inkscape:export-ydpi="279.27274">
  <defs
     id="defs2" />
  <sodipodi:namedview
     id="base"
     pagecolor="#ffffff"
     bordercolor="#666666"
     borderopacity="1.0"
     inkscape:pageopacity="0.0"
     inkscape:pageshadow="2"
     inkscape:zoom="5.84375"
     inkscape:cx="64"
     inkscape:cy="64"
     inkscape:document-units="mm"
     inkscape:current-layer="layer1"
     showgrid="true"
     units="px"
     inkscape:window-width="1680"
     inkscape:window-height="925"
     inkscape:window-x="0"
     inkscape:window-y="1"
     inkscape:window-maximized="1"
     inkscape:pagecheckerboard="true">
    <inkscape:grid
       type="xygrid"
       id="grid815"
       empspacing="4"
       spacingy="0.26458334"
       spacingx="0.26458334" />
  </sodipodi:namedview>
  <metadata
     id="metadata5">
    <rdf:RDF>
      <cc:Work
         rdf:about="">
        <dc:format>image/svg+xml</dc:format>
        <dc:type
           rdf:resource="http://purl.org/dc/dcmitype/StillImage" />
        <dc:title></dc:title>
      </cc:Work>
    </rdf:RDF>
  </metadata>
  <g
     inkscape:label="Layer 1"
     inkscape:groupmode="layer"
     id="layer1"
     transform="translate(0,-273.71665)">
    <path
       style="opacity:1;fill:#fafafa;fill-opacity:1;stroke:none;stroke-width:0.26458332px;stroke-linecap:butt;stroke-linejoin:miter;stroke-opacity:1"
       d="m 13.639994,277.18414 c -1.471073,0.7363 -2.264541,1.90991 -2.263945,3.41167 -1.322567,-10e-5 -2.6365987,-0.1933 -3.9677161,-0.52916 -2.1166667,0 -3.4395833,0.79375 -3.7041667,2.11666 0,0 -1.0583335,4.58728 -1.0583333,5.82084 5e-7,1.23356 0.7937503,1.85208 1.5875,2.11666 1.5875013,0.52917 2.3812502,-0.79374 3.4395833,-1.85208 h 3.9687498 3.96875 c 1.058333,1.05834 1.852082,2.38125 3.439583,1.85208 0.79375,-0.26458 1.5875,-0.8831 1.5875,-2.11666 0,-0.0561 -0.0046,-0.12619 -0.0088,-0.19534 -1.114793,-0.15556 -2.402637,-0.63074 -3.532084,-1.55236 a 1.5874998,1.5874998 0 0 1 -0.692465,0.1602 1.5874998,1.5874998 0 0 1 -1.5875,-1.5875 1.5874998,1.5874998 0 0 1 0.376205,-1.02578 c -0.445233,-0.95118 -0.727674,-2.09037 -0.765845,-3.42977 -0.84116,0.14336 -1.679299,0.22221 -2.520777,0.22221 h -5.29e-4 c -5.29e-4,-1.32464 0.625048,-2.26543 1.970422,-2.93884 z m 2.235005,2.88251 c -0.219553,0.0554 -0.438585,0.10555 -0.657324,0.15296 0.01819,1.23909 0.252301,2.26975 0.629936,3.12384 a 1.5874998,1.5874998 0 0 1 0.556555,-0.1018 1.5874998,1.5874998 0 0 1 1.5875,1.5875 1.5874998,1.5874998 0 0 1 -0.282153,0.90278 c 0.905209,0.7031 1.933657,1.09772 2.823083,1.25884 -0.261587,-1.79682 -0.95343,-4.80746 -0.95343,-4.80746 -0.264584,-1.32291 -1.587501,-2.11666 -3.704167,-2.11666 z m -9.2604161,3.70365 h 0.5291666 v 0.79478 h 0.7932333 v 0.52917 c -0.2640661,-5.3e-4 -0.5288222,0 -0.7932333,0 v 0.79323 H 6.6145829 v -0.79323 H 5.8218663 v -0.52917 h 0.7927166 z m 9.7895831,5.1e-4 a 0.26458331,0.26458331 0 0 0 -0.264583,0.26459 0.26458331,0.26458331 0 0 0 0.264583,0.26458 0.26458331,0.26458331 0 0 0 0.264583,-0.26458 0.26458331,0.26458331 0 0 0 -0.264583,-0.26459 z m -0.79375,0.79375 a 0.26458331,0.26458331 0 0 0 -0.264583,0.26459 0.26458331,0.26458331 0 0 0 0.264583,0.26458 0.26458331,0.26458331 0 0 0 0.264583,-0.26458 0.26458331,0.26458331 0 0 0 -0.264583,-0.26459 z m 1.5875,0 a 0.26458331,0.26458331 0 0 0 -0.264583,0.26459 0.26458331,0.26458331 0 0 0 0.264583,0.26458 0.26458331,0.26458331 0 0 0 0.264583,-0.26458 0.26458331,0.26458331 0 0 0 -0.264583,-0.26459 z m -6.438883,0.59635 c 0.288923,0.25919 0.568559,0.38467 0.847493,0.39067 0.01146,2.6e-4 0.0236,-0.003 0.03514,-0.003 0.01154,1.5e-4 0.02368,0.003 0.03514,0.003 0.278934,-0.006 0.558571,-0.13148 0.847494,-0.39067 l 0.351399,0.39429 c -0.354917,0.3184 -0.756981,0.51348 -1.187524,0.52348 -0.01548,3.7e-4 -0.03102,-0.001 -0.04651,-0.002 -0.01549,1.3e-4 -0.03103,0.002 -0.04651,0.002 -0.430543,-0.01 -0.832607,-0.20508 -1.187524,-0.52348 z m 5.645133,0.1974 a 0.26458331,0.26458331 0 0 0 -0.264583,0.26459 0.26458331,0.26458331 0 0 0 0.264583,0.26458 0.26458331,0.26458331 0 0 0 0.264583,-0.26458 0.26458331,0.26458331 0 0 0 -0.264583,-0.26459 z"
       id="path817"
       inkscape:connector-curvature="0" />
    <rect
       style="fill:#ffffff;fill-opacity:1;stroke:none;stroke-width:0.26458332;stroke-opacity:1"
       id="rect835"
       width="0"
       height="25.400009"
       x="16.933332"
       y="267.36667" />
    <rect
       style="opacity:0;fill:#f4ffff;fill-opacity:1;stroke:none;stroke-width:0.52916664;stroke-linecap:butt;stroke-linejoin:bevel;stroke-miterlimit:4;stroke-dasharray:none;stroke-dashoffset:0;stroke-opacity:1"
       id="rect927"
       width="23.283333"
       height="23.283333"
       x="-8.8817842e-16"
       y="273.71664"
       inkscape:export-xdpi="279.27277"
       inkscape:export-ydpi="279.27277" />
  </g>
</svg>
